<?xml version="1.0" encoding="iso-8859-1"?>
<!-- Uploaded to: SVG Repo, www.svgrepo.com, Generator: SVG Repo Mixer Tools -->
<svg fill="currentColor" version="1.1" id="Layer_1" xmlns="http://www.w3.org/2000/svg" xmlns:xlink="http://www.w3.org/1999/xlink"
	 viewBox="0 0 512 512" xml:space="preserve">
<g>
	<g>
		<g>
			<path d="M464.566,239.421c-24.464-24.463-55.439-40.042-89.584-45.057c-0.053-0.009-0.107-0.016-0.159-0.023
				c-8-1.167-16.264-1.72-24.542-1.65c-13.117-1.172-32.155-3.356-50.342-7.195l-27.057-27.059
				c-15.37-15.37-35.805-23.834-57.541-23.834c-11.12,0-21.953,2.263-31.947,6.527c-0.112,0.048-0.225,0.094-0.337,0.142
				c-1.304,0.564-2.596,1.155-3.87,1.787c-0.087,0.043-0.176,0.082-0.263,0.126c-1.282,0.641-2.549,1.317-3.798,2.028
				c-0.417,0.237-0.822,0.492-1.234,0.736c-0.785,0.466-1.568,0.936-2.338,1.429c-0.534,0.341-1.059,0.696-1.585,1.05
				c-0.658,0.442-1.31,0.893-1.955,1.355c-0.513,0.368-1.024,0.739-1.53,1.119c-0.701,0.527-1.39,1.072-2.075,1.623
				c-0.416,0.335-0.835,0.661-1.245,1.004c-1.09,0.912-2.165,1.849-3.213,2.823c-0.016,0.015-0.033,0.032-0.049,0.047
				c-0.053,0.05-0.107,0.1-0.164,0.156c-0.003,0.003-0.008,0.007-0.012,0.012c-0.005,0.004-0.01,0.01-0.015,0.014l-0.218,0.206
				l-0.217,0.204c-0.508,0.474-1.014,0.951-1.515,1.451c-0.736,0.737-1.459,1.497-2.074,2.178c-0.822,0.884-1.616,1.788-2.393,2.701
				c-0.216,0.254-0.425,0.512-0.638,0.768c-0.574,0.692-1.137,1.391-1.687,2.098c-0.21,0.271-0.42,0.54-0.626,0.813
				c-0.593,0.783-1.169,1.576-1.731,2.377c-0.127,0.181-0.259,0.359-0.385,0.54c-0.667,0.969-1.313,1.95-1.935,2.945
				c-0.198,0.316-0.384,0.639-0.578,0.958c-0.388,0.64-0.772,1.283-1.141,1.933c-0.301,0.527-0.591,1.059-0.88,1.592
				c-0.212,0.394-0.421,0.79-0.627,1.188c-0.361,0.695-0.716,1.391-1.056,2.095l-64.79-64.79c-3.121-3.121-8.182-3.121-11.302,0
				c-11.241,11.238-29.531,11.238-40.768,0c-11.241-11.244-11.242-29.533-0.002-40.772c9.511-9.51,24.134-11.192,35.558-4.093
				c3.156,1.961,7.242,1.488,9.87-1.136c2.627-2.626,3.098-6.715,1.138-9.869C64.617,48.54,66.3,33.916,75.809,24.406
				c11.241-11.239,29.531-11.238,40.77,0c5.444,5.444,8.444,12.684,8.444,20.385c0,7.7-3,14.94-8.444,20.385
				c-0.262,0.262-0.539,0.503-0.813,0.747l-0.347,0.31c-1.633,1.465-2.592,3.539-2.649,5.732c-0.06,2.194,0.785,4.315,2.337,5.866
				l53.077,53.077c3.121,3.121,8.181,3.121,11.303,0c3.121-3.121,3.121-8.182,0-11.302l-47.645-47.645
				c5.945-7.768,9.166-17.222,9.166-27.169c0-11.97-4.661-23.224-13.125-31.688C110.408-4.368,81.978-4.367,64.507,13.103
				c-10.26,10.261-14.663,24.351-12.71,37.952c-13.598-1.953-27.687,2.449-37.95,12.709c-17.472,17.472-17.473,45.902,0,63.377
				c15.542,15.543,39.76,17.259,57.216,5.146l65.034,65.034c-1.526,6.509-2.268,13.243-2.152,20.082
				c0.36,21.206,8.819,41.146,23.821,56.147l27.063,27.065c3.844,18.192,6.024,37.214,7.194,50.318
				c-0.072,8.259,0.476,16.483,1.633,24.455c0.018,0.141,0.038,0.28,0.064,0.42c5.039,34.082,20.607,65.001,45.032,89.426
				c30.154,30.153,70.251,46.762,112.903,46.766c0.005,0,0.008,0,0.014,0c42.644,0,82.738-16.61,112.896-46.769
				C526.82,402.976,526.82,301.677,464.566,239.421z M453.262,453.929c-27.141,27.142-63.217,42.087-101.593,42.086
				c-0.002,0-0.01,0-0.012,0c-38.384-0.003-74.467-14.949-101.602-42.084c-22.034-22.033-36.058-49.933-40.556-80.686
				c-0.008-0.054-0.017-0.11-0.026-0.164c-1.055-7.281-1.547-14.808-1.463-22.373c0.003-0.264-0.006-0.53-0.03-0.794
				c-1.25-14.122-3.658-35.128-8.027-55.001c-0.328-1.49-1.075-2.856-2.154-3.933l-28.729-28.732
				c-17.437-17.437-23.054-42.099-16.68-64.237c0.107-0.255,0.21-0.512,0.29-0.78c1.436-4.804,3.381-9.354,5.822-13.634
				c0.056-0.099,0.116-0.198,0.174-0.297c0.499-0.864,1.023-1.714,1.563-2.554c0.182-0.283,0.366-0.566,0.553-0.847
				c0.445-0.672,0.91-1.333,1.382-1.991c0.242-0.336,0.478-0.672,0.728-1.004c0.482-0.644,0.984-1.276,1.491-1.903
				c0.241-0.298,0.471-0.601,0.718-0.896c0.76-0.909,1.542-1.805,2.356-2.682c0.518-0.573,1.053-1.135,1.603-1.685
				c0.368-0.368,0.745-0.718,1.122-1.07l0.426-0.4c0.088-0.081,0.176-0.165,0.266-0.253c0.843-0.782,1.707-1.532,2.582-2.263
				c0.323-0.27,0.654-0.527,0.982-0.791c0.555-0.446,1.114-0.887,1.682-1.313c0.402-0.302,0.809-0.597,1.217-0.889
				c0.522-0.374,1.05-0.738,1.582-1.095c0.418-0.28,0.834-0.561,1.257-0.831c0.627-0.4,1.263-0.783,1.902-1.161
				c0.321-0.19,0.636-0.388,0.96-0.571c1.009-0.572,2.031-1.121,3.07-1.638c0.029-0.014,0.059-0.027,0.086-0.042
				c1.065-0.528,2.146-1.026,3.243-1.496c0.054-0.023,0.109-0.045,0.162-0.068c2.252-0.957,4.568-1.794,6.948-2.505
				c0.111-0.033,0.215-0.077,0.323-0.115c5.935-1.74,12.14-2.648,18.46-2.648c17.467,0,33.888,6.802,46.238,19.153l28.722,28.724
				c1.079,1.08,2.446,1.827,3.936,2.155c19.867,4.366,40.886,6.776,55.022,8.03c0.263,0.023,0.523,0.034,0.795,0.031
				c7.559-0.081,15.133,0.411,22.435,1.475c0.03,0.004,0.061,0.01,0.091,0.014c30.75,4.499,58.65,18.523,80.683,40.557
				C509.285,306.748,509.285,397.905,453.262,453.929z"/>
			<path d="M403.08,453.752l-123.999-16.084c-4.372-0.574-8.385,2.519-8.953,6.898c-0.568,4.377,2.52,8.387,6.898,8.954
				l123.999,16.084c0.348,0.046,0.695,0.068,1.039,0.068c3.956,0,7.393-2.937,7.916-6.965
				C410.545,458.329,407.457,454.319,403.08,453.752z"/>
			<path d="M458.592,377.298l-219.326-28.449c-4.368-0.573-8.387,2.519-8.953,6.898c-0.568,4.377,2.52,8.387,6.898,8.953
				l219.326,28.449c0.348,0.046,0.695,0.067,1.039,0.067c3.956,0,7.393-2.937,7.916-6.965
				C466.058,381.875,462.97,377.865,458.592,377.298z"/>
			<path d="M238.785,283.747c3.956,0,7.393-2.937,7.916-6.965c0.568-4.377-2.52-8.387-6.898-8.953l-27.379-3.552
				c-4.386-0.574-8.385,2.519-8.953,6.898c-0.568,4.377,2.52,8.387,6.898,8.953l27.379,3.552
				C238.095,283.725,238.44,283.747,238.785,283.747z"/>
			<path d="M256.698,278.079c-0.568,4.377,2.52,8.387,6.898,8.954l190.873,24.76c0.35,0.046,0.695,0.068,1.039,0.068
				c3.956,0,7.393-2.937,7.916-6.965c0.568-4.377-2.52-8.387-6.898-8.953l-190.873-24.76
				C261.278,270.606,257.266,273.702,256.698,278.079z"/>
			<path d="M439.576,268.707c3.956,0,7.393-2.937,7.916-6.965c0.568-4.377-2.52-8.387-6.898-8.953l-260.376-33.776
				c-4.385-0.566-8.385,2.519-8.953,6.898c-0.568,4.378,2.52,8.387,6.898,8.954l260.376,33.776
				C438.887,268.685,439.232,268.707,439.576,268.707z"/>
			<path d="M239.819,309.918c-4.362-0.577-8.385,2.519-8.953,6.898c-0.568,4.377,2.52,8.387,6.898,8.953l134.697,17.473
				c0.348,0.046,0.695,0.068,1.039,0.068c3.956,0,7.393-2.937,7.916-6.965c0.568-4.377-2.52-8.387-6.898-8.953L239.819,309.918z"/>
			<path d="M460.785,338.583l-61.472-7.974c-4.374-0.579-8.385,2.519-8.953,6.898c-0.568,4.377,2.52,8.387,6.898,8.953l61.472,7.974
				c0.35,0.046,0.695,0.068,1.039,0.068c3.956,0,7.393-2.937,7.916-6.965C468.251,343.16,465.162,339.15,460.785,338.583z"/>
			<path d="M288.298,414.768c3.956,0,7.393-2.937,7.916-6.965c0.568-4.377-2.52-8.387-6.898-8.954l-40.277-5.224
				c-4.371-0.575-8.386,2.519-8.953,6.898c-0.568,4.377,2.52,8.387,6.898,8.953l40.277,5.224
				C287.609,414.745,287.955,414.768,288.298,414.768z"/>
			<path d="M430.345,417.144L316.31,402.351c-4.382-0.574-8.387,2.519-8.953,6.898c-0.568,4.377,2.52,8.387,6.898,8.953
				l114.035,14.793c0.35,0.046,0.695,0.068,1.039,0.068c3.956,0,7.393-2.937,7.916-6.965
				C437.811,421.721,434.723,417.712,430.345,417.144z"/>
			<path d="M194.939,193.61l52.721,6.838c0.349,0.045,0.695,0.067,1.039,0.067c3.956,0,7.393-2.937,7.916-6.965
				c0.568-4.378-2.52-8.387-6.898-8.953l-52.721-6.838c-4.371-0.571-8.385,2.519-8.953,6.898
				C187.473,189.034,190.562,193.043,194.939,193.61z"/>
		</g>
	</g>
</g>
</svg>
