<?xml version="1.0" encoding="iso-8859-1"?>
<!-- Uploaded to: SVG Repo, www.svgrepo.com, Generator: SVG Repo Mixer Tools -->
<!DOCTYPE svg PUBLIC "-//W3C//DTD SVG 1.1//EN" "http://www.w3.org/Graphics/SVG/1.1/DTD/svg11.dtd">
<svg fill="currentColor" version="1.1" id="Capa_1" xmlns="http://www.w3.org/2000/svg" xmlns:xlink="http://www.w3.org/1999/xlink"
	 viewBox="0 0 310.5 310.501"
	 xml:space="preserve">
<g>
	<path d="M108.615,6.824C55.959,6.824,0,23.093,0,53.246c0,0.482,0.053,0.946,0.082,1.421H0v42.051v1.809v10.995v146.642h0.066
		C0.047,256.521,0,256.88,0,257.249c0,30.153,55.959,46.428,108.615,46.428c52.649,0,108.608-16.274,108.608-46.428
		c0-0.369-0.047-0.728-0.062-1.086h0.062v-29.015v-2.01v-84.926v-2.015v-28.682V98.521v-1.809v-42.05h-0.079
		c0.026-0.475,0.079-0.938,0.079-1.421C217.234,23.087,161.264,6.824,108.615,6.824z M16.2,96.712L16.2,96.712h0.185
		c0.82-6.101,5.658-10.882,11.781-11.623c11.681,5.3,26.122,9.197,41.639,11.623c12.545,1.959,25.782,2.958,38.818,2.958
		c13.033,0,26.27-1,38.807-2.958c15.52-2.426,29.958-6.323,41.633-11.623c6.128,0.741,10.964,5.521,11.781,11.623h0.189l0,0
		c0,0.216-0.1,0.443-0.121,0.659c-1.229,12.295-36.866,29.568-92.298,29.568c-55.435,0-91.075-17.273-92.301-29.568
		C16.297,97.155,16.2,96.929,16.2,96.712z M201.034,226.716c-0.058,0.348-0.2,0.891-0.484,1.571
		c-0.29,0.681-0.755,1.514-1.456,2.452c-0.416,0.554-0.886,1.134-1.497,1.756c-1.145,1.166-2.732,2.479-4.815,3.834
		c-2.283,1.492-5.226,3.032-8.975,4.546c-9.63,3.887-24.743,7.493-48.281,9.086c-4.396,0.296-9.052,0.527-14.057,0.675
		c-1.545,0.043-3.148,0.063-4.759,0.096v-23.557v-8.105v-8.116v-30.929c27.994-0.464,50.295-3.406,66.796-8.764
		c6.84-2.215,12.688-4.852,17.519-7.9v63.355H201.034z M209.134,225.429L209.134,225.429L209.134,225.429L209.134,225.429
		L209.134,225.429z M209.134,138.491L209.134,138.491L209.134,138.491L209.134,138.491z M185.63,68.729
		c-1.408,0.723-2.885,1.438-4.472,2.139c-4.952,2.17-10.773,4.195-17.355,5.962c-14.784,3.974-33.446,6.647-55.181,6.647
		c-21.743,0-40.405-2.673-55.189-6.647c-6.584-1.772-12.403-3.792-17.354-5.962c-1.588-0.696-3.064-1.416-4.472-2.139
		c-8.97-4.601-14.212-9.61-15.153-14.062c-0.097-0.475-0.248-0.954-0.248-1.421c0-12.321,36.001-30.222,92.417-30.222
		c56.404,0,92.411,17.896,92.411,30.222c0,0.459-0.152,0.946-0.253,1.421C199.842,59.118,194.6,64.128,185.63,68.729z
		 M209.134,256.163h-0.147h-8.153c0.063,0.358,0.19,0.738,0.19,1.086c0,12.318-35.997,30.228-92.409,30.228
		c-56.413,0-92.415-17.898-92.415-30.228c0-0.348,0.134-0.728,0.19-1.086H8.245H8.1l0,0h0.145H16.2v-13.991v-10.161V121.946
		c20.429,13.882,57.148,21.189,92.415,21.189c35.263,0,71.99-7.312,92.409-21.189v17.834c-0.143,0.915-0.765,3.059-3.434,5.78
		c-6.713,6.853-27.195,18.338-88.981,18.338h-8.1v47.061v8.115v8.105v28.983v10.916h16.2v-0.132
		c31.332-0.522,55.531-4.14,72.428-10.784c3.518-1.382,6.719-2.896,9.593-4.535c0.774-0.438,1.561-0.87,2.294-1.329v5.864h7.957
		H209.134L209.134,256.163z"/>
	<path d="M270.707,73.681c-24.289,0-39.793,36.342-39.793,61.359c0,21.982,11.696,36.094,31.693,39.031v99.346
		c0,4.473,3.628,8.101,8.1,8.101s8.101-3.628,8.101-8.101v-99.346c19.996-2.938,31.693-17.049,31.693-39.031
		C310.5,110.022,294.997,73.681,270.707,73.681z M270.707,158.467c-16.095,0-23.593-7.443-23.593-23.427
		c0-21.102,12.566-45.159,23.593-45.159c11.027,0,23.594,24.057,23.594,45.159C294.3,151.023,286.801,158.467,270.707,158.467z"/>
</g>
</svg>
